<mxfile host="65bd71144e">
    <diagram id="r4j8OCH8LPA5-8JfiloW" name="Page-1">
        <mxGraphModel dx="1762" dy="1139" grid="0" gridSize="5" guides="1" tooltips="1" connect="1" arrows="1" fold="1" page="1" pageScale="1" pageWidth="1670" pageHeight="1350" background="#ffffff" math="0" shadow="0">
            <root>
                <mxCell id="0"/>
                <mxCell id="1" parent="0"/>
                <mxCell id="0A_by2eqg8Z_qzjbImg3-26" value="&lt;div style=&quot;font-size: 32px&quot;&gt;The Keep of the Asherodan&lt;/div&gt;" style="text;html=1;strokeColor=none;fillColor=none;align=center;verticalAlign=middle;whiteSpace=wrap;rounded=0;fontSize=32;fontColor=#000000;" parent="1" vertex="1">
                    <mxGeometry x="15" y="13" width="400" height="30" as="geometry"/>
                </mxCell>
                <object label="Before the Keep" placeholders="1" room="37400" healrate="100" manarate="100" sector="field" id="18">
                    <mxCell style="rounded=0;whiteSpace=wrap;html=1;strokeColor=#000000;fillColor=#FFFFFF;" parent="1" vertex="1">
                        <mxGeometry x="1180" y="920" width="120" height="60" as="geometry"/>
                    </mxCell>
                </object>
                <object label="Inside the keep" placeholders="1" room="37403" healrate="100" manarate="100" sector="castle" id="19">
                    <mxCell style="rounded=0;whiteSpace=wrap;html=1;strokeColor=#000000;fillColor=#FFFFFF;" parent="1" vertex="1">
                        <mxGeometry x="1180" y="820" width="120" height="60" as="geometry"/>
                    </mxCell>
                </object>
                <object label="Western Part of the Foyer" room="37402" healrate="100" manarate="100" sector="castle" placeholders="1" id="20">
                    <mxCell style="rounded=0;whiteSpace=wrap;html=1;strokeColor=#000000;fillColor=#FFFFFF;" parent="1" vertex="1">
                        <mxGeometry x="1020" y="820" width="120" height="60" as="geometry"/>
                    </mxCell>
                </object>
                <object label="Moorerry's Office" room="37404" healrate="100" manarate="100" sector="castle" placeholders="1" id="21">
                    <mxCell style="rounded=0;whiteSpace=wrap;html=1;strokeColor=#000000;fillColor=#FFFFFF;" parent="1" vertex="1">
                        <mxGeometry x="1340" y="820" width="120" height="60" as="geometry"/>
                    </mxCell>
                </object>
                <mxCell id="35" style="edgeStyle=orthogonalEdgeStyle;rounded=0;orthogonalLoop=1;jettySize=auto;html=1;exitX=0.5;exitY=1;exitDx=0;exitDy=0;endArrow=none;endFill=0;" parent="1" source="22" target="19" edge="1">
                    <mxGeometry relative="1" as="geometry"/>
                </mxCell>
                <mxCell id="36" style="edgeStyle=orthogonalEdgeStyle;rounded=0;orthogonalLoop=1;jettySize=auto;html=1;exitX=1;exitY=0.5;exitDx=0;exitDy=0;entryX=0;entryY=0.5;entryDx=0;entryDy=0;endArrow=none;endFill=0;" parent="1" source="22" target="24" edge="1">
                    <mxGeometry relative="1" as="geometry"/>
                </mxCell>
                <object label="Northern Vestible" placeholders="1" room="37408" healrate="100" manarate="100" sector="castle" id="22">
                    <mxCell style="rounded=0;whiteSpace=wrap;html=1;strokeColor=#000000;fillColor=#FFFFFF;" parent="1" vertex="1">
                        <mxGeometry x="1180" y="720" width="120" height="60" as="geometry"/>
                    </mxCell>
                </object>
                <object label="Western Stairs" placeholders="1" room="37407" healrate="100" manarate="100" sector="castle" id="23">
                    <mxCell style="rounded=0;whiteSpace=wrap;html=1;strokeColor=#000000;fillColor=#FFFFFF;" parent="1" vertex="1">
                        <mxGeometry x="1020" y="720" width="120" height="60" as="geometry"/>
                    </mxCell>
                </object>
                <object label="Eastern Stairs" placeholders="1" room="37409" healrate="100" manarate="100" sector="castle" id="24">
                    <mxCell style="rounded=0;whiteSpace=wrap;html=1;strokeColor=#000000;fillColor=#FFFFFF;" parent="1" vertex="1">
                        <mxGeometry x="1340" y="720" width="120" height="60" as="geometry"/>
                    </mxCell>
                </object>
                <mxCell id="30" style="edgeStyle=orthogonalEdgeStyle;rounded=0;orthogonalLoop=1;jettySize=auto;html=1;exitX=1;exitY=0.5;exitDx=0;exitDy=0;entryX=0;entryY=0.5;entryDx=0;entryDy=0;endArrow=none;endFill=0;" parent="1" source="25" target="20" edge="1">
                    <mxGeometry relative="1" as="geometry"/>
                </mxCell>
                <object label="A Well-Lit Corner of the Keep" room="37401" healrate="100" manarate="100" sector="castle" placeholders="1" id="25">
                    <mxCell style="rounded=0;whiteSpace=wrap;html=1;strokeColor=#000000;fillColor=#FFFFFF;" parent="1" vertex="1">
                        <mxGeometry x="860" y="820" width="120" height="60" as="geometry"/>
                    </mxCell>
                </object>
                <object label="" passable="true" id="27">
                    <mxCell style="endArrow=none;html=1;endFill=0;exitX=0.5;exitY=0;exitDx=0;exitDy=0;entryX=0.5;entryY=1;entryDx=0;entryDy=0;" parent="1" source="25" target="26" edge="1">
                        <mxGeometry relative="1" as="geometry">
                            <mxPoint x="1065" y="657" as="sourcePoint"/>
                            <mxPoint x="915" y="775" as="targetPoint"/>
                        </mxGeometry>
                    </mxCell>
                </object>
                <mxCell id="28" value="&lt;font style=&quot;font-size: 20px;&quot;&gt;|&lt;/font&gt;" style="edgeLabel;resizable=0;html=1;align=center;verticalAlign=middle;labelBackgroundColor=none;rotation=90;fontSize=20;" parent="27" connectable="0" vertex="1">
                    <mxGeometry relative="1" as="geometry">
                        <mxPoint x="4" y="-2" as="offset"/>
                    </mxGeometry>
                </mxCell>
                <mxCell id="29" value="" style="endArrow=none;html=1;entryX=0.5;entryY=1;entryDx=0;entryDy=0;exitX=0.5;exitY=0;exitDx=0;exitDy=0;" parent="1" source="20" target="23" edge="1">
                    <mxGeometry width="50" height="50" relative="1" as="geometry">
                        <mxPoint x="1040" y="660" as="sourcePoint"/>
                        <mxPoint x="1090" y="610" as="targetPoint"/>
                    </mxGeometry>
                </mxCell>
                <mxCell id="31" value="" style="endArrow=none;html=1;exitX=1;exitY=0.5;exitDx=0;exitDy=0;entryX=0;entryY=0.5;entryDx=0;entryDy=0;" parent="1" source="23" target="22" edge="1">
                    <mxGeometry width="50" height="50" relative="1" as="geometry">
                        <mxPoint x="1040" y="660" as="sourcePoint"/>
                        <mxPoint x="1090" y="610" as="targetPoint"/>
                    </mxGeometry>
                </mxCell>
                <mxCell id="32" value="" style="endArrow=none;html=1;exitX=1;exitY=0.5;exitDx=0;exitDy=0;entryX=0;entryY=0.5;entryDx=0;entryDy=0;" parent="1" source="20" target="19" edge="1">
                    <mxGeometry width="50" height="50" relative="1" as="geometry">
                        <mxPoint x="1040" y="660" as="sourcePoint"/>
                        <mxPoint x="1090" y="610" as="targetPoint"/>
                    </mxGeometry>
                </mxCell>
                <object label="" passable="true" id="39">
                    <mxCell style="endArrow=none;html=1;endFill=0;entryX=0.5;entryY=1;entryDx=0;entryDy=0;exitX=0.5;exitY=0;exitDx=0;exitDy=0;" parent="1" source="18" target="19" edge="1">
                        <mxGeometry relative="1" as="geometry">
                            <mxPoint x="630" y="657" as="sourcePoint"/>
                            <mxPoint x="630" y="610" as="targetPoint"/>
                        </mxGeometry>
                    </mxCell>
                </object>
                <mxCell id="40" value="&lt;font style=&quot;font-size: 20px;&quot;&gt;|&lt;/font&gt;" style="edgeLabel;resizable=0;html=1;align=center;verticalAlign=middle;labelBackgroundColor=none;rotation=90;fontSize=20;" parent="39" connectable="0" vertex="1">
                    <mxGeometry relative="1" as="geometry">
                        <mxPoint x="4" y="-2" as="offset"/>
                    </mxGeometry>
                </mxCell>
                <mxCell id="53" style="edgeStyle=orthogonalEdgeStyle;rounded=0;orthogonalLoop=1;jettySize=auto;html=1;exitX=1;exitY=0.5;exitDx=0;exitDy=0;entryX=0;entryY=0.5;entryDx=0;entryDy=0;endArrow=none;endFill=0;" parent="1" source="41" target="44" edge="1">
                    <mxGeometry relative="1" as="geometry"/>
                </mxCell>
                <mxCell id="55" style="edgeStyle=orthogonalEdgeStyle;rounded=0;orthogonalLoop=1;jettySize=auto;html=1;exitX=0.5;exitY=0;exitDx=0;exitDy=0;entryX=0.5;entryY=1;entryDx=0;entryDy=0;endArrow=none;endFill=0;" parent="1" source="41" target="45" edge="1">
                    <mxGeometry relative="1" as="geometry">
                        <Array as="points">
                            <mxPoint x="1240" y="380"/>
                            <mxPoint x="1320" y="380"/>
                            <mxPoint x="1320" y="280"/>
                            <mxPoint x="1240" y="280"/>
                        </Array>
                    </mxGeometry>
                </mxCell>
                <mxCell id="85" style="edgeStyle=orthogonalEdgeStyle;rounded=0;orthogonalLoop=1;jettySize=auto;html=1;exitX=0.5;exitY=1;exitDx=0;exitDy=0;entryX=0.5;entryY=0;entryDx=0;entryDy=0;endArrow=none;endFill=0;" parent="1" source="41" target="84" edge="1">
                    <mxGeometry relative="1" as="geometry"/>
                </mxCell>
                <object label="A Green Obelisk" placeholders="1" room="37411" healrate="-10" manarate="-10" sector="dead_field" tags="nosummon noport" id="41">
                    <mxCell style="rounded=0;whiteSpace=wrap;html=1;strokeColor=#000000;fillColor=#FFFFFF;" parent="1" vertex="1">
                        <mxGeometry x="1180" y="400" width="120" height="60" as="geometry"/>
                    </mxCell>
                </object>
                <mxCell id="54" style="edgeStyle=orthogonalEdgeStyle;rounded=0;orthogonalLoop=1;jettySize=auto;html=1;exitX=1;exitY=0.5;exitDx=0;exitDy=0;entryX=0;entryY=0.5;entryDx=0;entryDy=0;endArrow=none;endFill=0;" parent="1" source="42" target="41" edge="1">
                    <mxGeometry relative="1" as="geometry"/>
                </mxCell>
                <mxCell id="57" style="edgeStyle=orthogonalEdgeStyle;rounded=0;orthogonalLoop=1;jettySize=auto;html=1;exitX=0.5;exitY=0;exitDx=0;exitDy=0;entryX=0.5;entryY=1;entryDx=0;entryDy=0;endArrow=none;endFill=0;" parent="1" source="42" target="43" edge="1">
                    <mxGeometry relative="1" as="geometry"/>
                </mxCell>
                <object label="Striking Flowers" placeholders="1" room="37410" healrate="100" manarate="100" sector="peony" tags="nosummon noport" id="42">
                    <mxCell style="rounded=0;whiteSpace=wrap;html=1;strokeColor=#000000;fillColor=#FFFFFF;" parent="1" vertex="1">
                        <mxGeometry x="1020" y="400" width="120" height="60" as="geometry"/>
                    </mxCell>
                </object>
                <mxCell id="58" style="edgeStyle=orthogonalEdgeStyle;rounded=0;orthogonalLoop=1;jettySize=auto;html=1;exitX=0.5;exitY=0;exitDx=0;exitDy=0;entryX=0.5;entryY=1;entryDx=0;entryDy=0;endArrow=none;endFill=0;" parent="1" source="43" target="47" edge="1">
                    <mxGeometry relative="1" as="geometry"/>
                </mxCell>
                <mxCell id="68" style="edgeStyle=orthogonalEdgeStyle;rounded=0;orthogonalLoop=1;jettySize=auto;html=1;exitX=1;exitY=0.5;exitDx=0;exitDy=0;entryX=0;entryY=0.5;entryDx=0;entryDy=0;endArrow=none;endFill=0;" parent="1" source="43" target="67" edge="1">
                    <mxGeometry relative="1" as="geometry"/>
                </mxCell>
                <object label="Floral Passage" placeholders="1" room="37415" healrate="100" manarate="100" sector="rose" tags="nosummon noport" id="43">
                    <mxCell style="rounded=0;whiteSpace=wrap;html=1;fillColor=#FFFFFF;strokeWidth=2;strokeColor=#FF0000;" parent="1" vertex="1">
                        <mxGeometry x="1020" y="300" width="120" height="60" as="geometry"/>
                    </mxCell>
                </object>
                <mxCell id="63" style="edgeStyle=orthogonalEdgeStyle;rounded=0;orthogonalLoop=1;jettySize=auto;html=1;exitX=1;exitY=0.5;exitDx=0;exitDy=0;entryX=0;entryY=0.5;entryDx=0;entryDy=0;endArrow=none;endFill=0;" parent="1" source="44" target="52" edge="1">
                    <mxGeometry relative="1" as="geometry"/>
                </mxCell>
                <object label="A White Obelisk" placeholders="1" room="37413" healrate="-10" manarate="-10" sector="dead_field" tags="nosummon noport" id="44">
                    <mxCell style="rounded=0;whiteSpace=wrap;html=1;strokeColor=#000000;fillColor=#FFFFFF;" parent="1" vertex="1">
                        <mxGeometry x="1340" y="400" width="120" height="60" as="geometry"/>
                    </mxCell>
                </object>
                <mxCell id="66" style="edgeStyle=orthogonalEdgeStyle;rounded=0;orthogonalLoop=1;jettySize=auto;html=1;exitX=0;exitY=0.5;exitDx=0;exitDy=0;entryX=1;entryY=0.5;entryDx=0;entryDy=0;endArrow=none;endFill=0;" parent="1" source="45" target="47" edge="1">
                    <mxGeometry relative="1" as="geometry"/>
                </mxCell>
                <object label="A Blue Obelisk" placeholders="1" room="37421" healrate="-10" manarate="-10" sector="dead_field" tags="nosummon noport" id="45">
                    <mxCell style="rounded=0;whiteSpace=wrap;html=1;strokeColor=#000000;fillColor=#FFFFFF;" parent="1" vertex="1">
                        <mxGeometry x="1180" y="200" width="120" height="60" as="geometry"/>
                    </mxCell>
                </object>
                <mxCell id="56" style="edgeStyle=orthogonalEdgeStyle;rounded=0;orthogonalLoop=1;jettySize=auto;html=1;exitX=0.5;exitY=1;exitDx=0;exitDy=0;entryX=0.5;entryY=0;entryDx=0;entryDy=0;endArrow=none;endFill=0;" parent="1" source="46" target="44" edge="1">
                    <mxGeometry relative="1" as="geometry"/>
                </mxCell>
                <mxCell id="64" style="edgeStyle=orthogonalEdgeStyle;rounded=0;orthogonalLoop=1;jettySize=auto;html=1;exitX=1;exitY=0.5;exitDx=0;exitDy=0;entryX=0;entryY=0.5;entryDx=0;entryDy=0;endArrow=none;endFill=0;" parent="1" source="46" target="49" edge="1">
                    <mxGeometry relative="1" as="geometry"/>
                </mxCell>
                <mxCell id="65" style="edgeStyle=orthogonalEdgeStyle;rounded=0;orthogonalLoop=1;jettySize=auto;html=1;exitX=0;exitY=0.5;exitDx=0;exitDy=0;entryX=1;entryY=0.5;entryDx=0;entryDy=0;endArrow=none;endFill=0;" parent="1" source="46" target="45" edge="1">
                    <mxGeometry relative="1" as="geometry"/>
                </mxCell>
                <object label="A Red Obelisk" placeholders="1" room="37422" healrate="-10" manarate="-10" sector="dead_field" tags="nosummon noport" id="46">
                    <mxCell style="rounded=0;whiteSpace=wrap;html=1;strokeColor=#000000;fillColor=#FFFFFF;" parent="1" vertex="1">
                        <mxGeometry x="1340" y="200" width="120" height="60" as="geometry"/>
                    </mxCell>
                </object>
                <mxCell id="59" style="edgeStyle=orthogonalEdgeStyle;rounded=0;orthogonalLoop=1;jettySize=auto;html=1;exitX=0.5;exitY=0;exitDx=0;exitDy=0;entryX=0.5;entryY=1;entryDx=0;entryDy=0;endArrow=none;endFill=0;" parent="1" source="47" target="48" edge="1">
                    <mxGeometry relative="1" as="geometry"/>
                </mxCell>
                <object label="Purple Paradise" placeholders="1" room="37420" healrate="100" manarate="&#10;100" sector="violet" tags="nosummon noport" id="47">
                    <mxCell style="rounded=0;whiteSpace=wrap;html=1;strokeColor=#000000;fillColor=#FFFFFF;" parent="1" vertex="1">
                        <mxGeometry x="1020" y="200" width="120" height="60" as="geometry"/>
                    </mxCell>
                </object>
                <object label="Active Plants" placeholders="1" room="37424" healrate="100" manarate="100" sector="vine" tags="nosummon noport" id="48">
                    <mxCell style="rounded=0;whiteSpace=wrap;html=1;fillColor=#FFFFFF;strokeColor=#FF0000;strokeWidth=2;" parent="1" vertex="1">
                        <mxGeometry x="1020" y="100" width="120" height="60" as="geometry"/>
                    </mxCell>
                </object>
                <mxCell id="61" style="edgeStyle=orthogonalEdgeStyle;rounded=0;orthogonalLoop=1;jettySize=auto;html=1;exitX=0.5;exitY=1;exitDx=0;exitDy=0;entryX=0.5;entryY=0;entryDx=0;entryDy=0;endArrow=none;endFill=0;" parent="1" source="49" target="51" edge="1">
                    <mxGeometry relative="1" as="geometry"/>
                </mxCell>
                <object label="Overgrown Flowers" placeholders="1" room="37423" healrate="100" manarate="100" sector="rose" tags="nosummon noport" id="49">
                    <mxCell style="rounded=0;whiteSpace=wrap;html=1;fillColor=#FFFFFF;strokeColor=#FF0000;strokeWidth=2;" parent="1" vertex="1">
                        <mxGeometry x="1500" y="200" width="120" height="60" as="geometry"/>
                    </mxCell>
                </object>
                <mxCell id="60" style="edgeStyle=orthogonalEdgeStyle;rounded=0;orthogonalLoop=1;jettySize=auto;html=1;exitX=0.5;exitY=1;exitDx=0;exitDy=0;entryX=0.5;entryY=0;entryDx=0;entryDy=0;endArrow=none;endFill=0;" parent="1" source="50" target="49" edge="1">
                    <mxGeometry relative="1" as="geometry"/>
                </mxCell>
                <object label="Striking Flowers" placeholders="1" room="37426" healrate="100" manarate="100" sector="peony" tags="nosummon noport" id="50">
                    <mxCell style="rounded=0;whiteSpace=wrap;html=1;strokeColor=#000000;fillColor=#FFFFFF;" parent="1" vertex="1">
                        <mxGeometry x="1500" y="100" width="120" height="60" as="geometry"/>
                    </mxCell>
                </object>
                <mxCell id="62" style="edgeStyle=orthogonalEdgeStyle;rounded=0;orthogonalLoop=1;jettySize=auto;html=1;exitX=0.5;exitY=1;exitDx=0;exitDy=0;entryX=0.5;entryY=0;entryDx=0;entryDy=0;endArrow=none;endFill=0;" parent="1" source="51" target="52" edge="1">
                    <mxGeometry relative="1" as="geometry"/>
                </mxCell>
                <object label="Violet Field" placeholders="1" room="37419" healrate="100" manarate="100" sector="violet" tags="nosummon noport" id="51">
                    <mxCell style="rounded=0;whiteSpace=wrap;html=1;strokeColor=#000000;fillColor=#FFFFFF;" parent="1" vertex="1">
                        <mxGeometry x="1500" y="300" width="120" height="60" as="geometry"/>
                    </mxCell>
                </object>
                <object label="Flowers and Obelisks" placeholders="1" room="37416" healrate="100" manarate="100" sector="field" tags="nosummon noport" id="67">
                    <mxCell style="rounded=0;whiteSpace=wrap;html=1;labelBackgroundColor=none;" parent="1" vertex="1">
                        <mxGeometry x="1180" y="300" width="120" height="60" as="geometry"/>
                    </mxCell>
                </object>
                <object label="Ancient Elevator" placeholders="1" room="37405" healrate="100" manarate="100" sector="castle" id="71">
                    <mxCell style="rounded=0;whiteSpace=wrap;html=1;strokeColor=#000000;fillColor=#FFFFFF;" parent="1" vertex="1">
                        <mxGeometry x="1020" y="580" width="120" height="60" as="geometry"/>
                    </mxCell>
                </object>
                <mxCell id="79" style="edgeStyle=orthogonalEdgeStyle;rounded=0;orthogonalLoop=1;jettySize=auto;html=1;exitX=1;exitY=0.5;exitDx=0;exitDy=0;entryX=0;entryY=0.5;entryDx=0;entryDy=0;endArrow=none;endFill=0;" parent="1" source="72" target="73" edge="1">
                    <mxGeometry relative="1" as="geometry"/>
                </mxCell>
                <object label="Upper Corridor" placeholders="1" room="37418" healrate="100" manarate="100" sector="castle" id="72">
                    <mxCell style="rounded=0;whiteSpace=wrap;html=1;strokeColor=#000000;fillColor=#FFFFFF;" parent="1" vertex="1">
                        <mxGeometry x="1340" y="580" width="120" height="60" as="geometry"/>
                    </mxCell>
                </object>
                <object label="Downward Stairs" placeholders="1" room="37425" healrate="100" manarate="100" sector="castle" id="73">
                    <mxCell style="rounded=0;whiteSpace=wrap;html=1;strokeColor=#000000;fillColor=#FFFFFF;" parent="1" vertex="1">
                        <mxGeometry x="1500" y="580" width="120" height="60" as="geometry"/>
                    </mxCell>
                </object>
                <mxCell id="78" style="edgeStyle=orthogonalEdgeStyle;rounded=0;orthogonalLoop=1;jettySize=auto;html=1;exitX=1;exitY=0.5;exitDx=0;exitDy=0;entryX=0;entryY=0.5;entryDx=0;entryDy=0;endArrow=none;endFill=0;" parent="1" source="74" target="72" edge="1">
                    <mxGeometry relative="1" as="geometry"/>
                </mxCell>
                <object label="An Excellent View" placeholders="1" room="37412" healrate="100" manarate="100" sector="castle" id="74">
                    <mxCell style="rounded=0;whiteSpace=wrap;html=1;strokeColor=#000000;fillColor=#FFFFFF;" parent="1" vertex="1">
                        <mxGeometry x="1180" y="580" width="120" height="60" as="geometry"/>
                    </mxCell>
                </object>
                <mxCell id="76" value="" style="endArrow=none;html=1;exitX=1;exitY=0;exitDx=0;exitDy=0;entryX=0;entryY=1;entryDx=0;entryDy=0;" parent="1" source="23" target="74" edge="1">
                    <mxGeometry width="50" height="50" relative="1" as="geometry">
                        <mxPoint x="1000" y="600" as="sourcePoint"/>
                        <mxPoint x="1050" y="550" as="targetPoint"/>
                    </mxGeometry>
                </mxCell>
                <mxCell id="77" value="" style="endArrow=none;html=1;exitX=1;exitY=0;exitDx=0;exitDy=0;entryX=0;entryY=1;entryDx=0;entryDy=0;" parent="1" source="24" target="73" edge="1">
                    <mxGeometry width="50" height="50" relative="1" as="geometry">
                        <mxPoint x="1000" y="600" as="sourcePoint"/>
                        <mxPoint x="1050" y="550" as="targetPoint"/>
                    </mxGeometry>
                </mxCell>
                <mxCell id="81" value="&lt;p style=&quot;line-height: 1.4&quot;&gt;&lt;b&gt;&lt;font style=&quot;font-size: 14px&quot; face=&quot;Helvetica&quot; color=&quot;#000000&quot;&gt;&lt;span style=&quot;line-height: 1.2&quot;&gt;A&lt;/span&gt;&lt;/font&gt;&lt;/b&gt;&lt;/p&gt;" style="ellipse;whiteSpace=wrap;html=1;aspect=fixed;strokeColor=#000000;strokeWidth=1;fillColor=none;gradientColor=none;labelBackgroundColor=none;" parent="1" vertex="1">
                    <mxGeometry x="1230" y="660" width="20" height="20" as="geometry"/>
                </mxCell>
                <object label="" passable="false" pickable="false" key="a brass key" id="82">
                    <mxCell style="endArrow=none;html=1;rounded=0;shadow=0;sketch=0;jumpStyle=none;exitX=0.5;exitY=1;exitDx=0;exitDy=0;entryX=0.5;entryY=0;entryDx=0;entryDy=0;endFill=0;strokeColor=#000000;" parent="1" source="81" target="22" edge="1">
                        <mxGeometry relative="1" as="geometry">
                            <mxPoint x="1370" y="1005" as="sourcePoint"/>
                            <mxPoint x="1515" y="1005" as="targetPoint"/>
                        </mxGeometry>
                    </mxCell>
                </object>
                <mxCell id="83" value="" style="shape=mxgraph.office.security.lock_protected;html=1;outlineConnect=0;strokeWidth=1;strokeColor=#000000;fillColor=#FF0000;" parent="82" vertex="1">
                    <mxGeometry width="15" height="20" relative="1" as="geometry">
                        <mxPoint x="-7" y="-10" as="offset"/>
                    </mxGeometry>
                </mxCell>
                <mxCell id="84" value="&lt;p style=&quot;line-height: 1.4&quot;&gt;&lt;b&gt;&lt;font style=&quot;font-size: 14px&quot; face=&quot;Helvetica&quot; color=&quot;#000000&quot;&gt;&lt;span style=&quot;line-height: 1.2&quot;&gt;A&lt;/span&gt;&lt;/font&gt;&lt;/b&gt;&lt;/p&gt;" style="ellipse;whiteSpace=wrap;html=1;aspect=fixed;strokeColor=#000000;strokeWidth=1;fillColor=none;gradientColor=none;labelBackgroundColor=none;" parent="1" vertex="1">
                    <mxGeometry x="1230" y="480" width="20" height="20" as="geometry"/>
                </mxCell>
                <mxCell id="0A_by2eqg8Z_qzjbImg3-25" value="" style="sketch=0;pointerEvents=1;shadow=0;dashed=0;html=1;fillColor=#FF0000;labelPosition=center;verticalLabelPosition=bottom;verticalAlign=top;outlineConnect=0;align=center;shape=mxgraph.office.security.key_permissions;strokeWidth=1;direction=south;strokeColor=#000000;" parent="1" vertex="1">
                    <mxGeometry x="949.995" y="725.0050000000001" width="25" height="11.79" as="geometry"/>
                </mxCell>
                <object label="An Overgrown Cell" placeholders="1" room="37442" healrate="100" manarate="100" sector="inside" tags="prison" id="88">
                    <mxCell style="rounded=0;whiteSpace=wrap;html=1;labelBackgroundColor=none;strokeColor=#000000;" parent="1" vertex="1">
                        <mxGeometry x="340" y="200" width="120" height="60" as="geometry"/>
                    </mxCell>
                </object>
                <object label="A Scored Cell" placeholders="1" room="37441" healrate="100" manarate="100" sector="cave" tags="indoors prison" id="89">
                    <mxCell style="rounded=0;whiteSpace=wrap;html=1;labelBackgroundColor=none;strokeColor=#FF0000;strokeWidth=2;" parent="1" vertex="1">
                        <mxGeometry x="180" y="200" width="120" height="60" as="geometry"/>
                    </mxCell>
                </object>
                <mxCell id="108" style="edgeStyle=orthogonalEdgeStyle;rounded=0;orthogonalLoop=1;jettySize=auto;html=1;exitX=1;exitY=0.5;exitDx=0;exitDy=0;entryX=0;entryY=0.5;entryDx=0;entryDy=0;endArrow=none;endFill=0;" parent="1" source="90" target="91" edge="1">
                    <mxGeometry relative="1" as="geometry"/>
                </mxCell>
                <object label="Northwest Corner of the Prison" placeholders="1" room="37446" healrate="100" manarate="100" sector="inside" id="90">
                    <mxCell style="rounded=0;whiteSpace=wrap;html=1;labelBackgroundColor=none;strokeColor=#000000;" parent="1" vertex="1">
                        <mxGeometry x="180" y="300" width="120" height="60" as="geometry"/>
                    </mxCell>
                </object>
                <mxCell id="109" style="edgeStyle=orthogonalEdgeStyle;rounded=0;orthogonalLoop=1;jettySize=auto;html=1;exitX=1;exitY=0.5;exitDx=0;exitDy=0;entryX=0;entryY=0.5;entryDx=0;entryDy=0;endArrow=none;endFill=0;" parent="1" source="91" target="94" edge="1">
                    <mxGeometry relative="1" as="geometry"/>
                </mxCell>
                <mxCell id="114" style="edgeStyle=orthogonalEdgeStyle;rounded=0;orthogonalLoop=1;jettySize=auto;html=1;exitX=0.5;exitY=1;exitDx=0;exitDy=0;entryX=0.5;entryY=0;entryDx=0;entryDy=0;endArrow=none;endFill=0;" parent="1" source="91" target="97" edge="1">
                    <mxGeometry relative="1" as="geometry"/>
                </mxCell>
                <object label="Northern Prison Corridor" placeholders="1" room="37447" healrate="100" manarate="100" sector="inside" id="91">
                    <mxCell style="rounded=0;whiteSpace=wrap;html=1;labelBackgroundColor=none;strokeColor=#000000;" parent="1" vertex="1">
                        <mxGeometry x="340" y="300" width="120" height="60" as="geometry"/>
                    </mxCell>
                </object>
                <object label="An Infested Cell" placeholders="1" room="37443" healrate="100" manarate="100" sector="inside" tags="indoors prison" id="92">
                    <mxCell style="rounded=0;whiteSpace=wrap;html=1;labelBackgroundColor=none;strokeColor=#000000;" parent="1" vertex="1">
                        <mxGeometry x="500" y="200" width="120" height="60" as="geometry"/>
                    </mxCell>
                </object>
                <object label="A Slimy Cell" placeholders="1" room="37444" healrate="100" manarate="100" sector="inside" tags="prison" id="93">
                    <mxCell style="rounded=0;whiteSpace=wrap;html=1;labelBackgroundColor=none;strokeColor=#000000;" parent="1" vertex="1">
                        <mxGeometry x="660" y="200" width="120" height="60" as="geometry"/>
                    </mxCell>
                </object>
                <mxCell id="110" style="edgeStyle=orthogonalEdgeStyle;rounded=0;orthogonalLoop=1;jettySize=auto;html=1;exitX=1;exitY=0.5;exitDx=0;exitDy=0;entryX=0;entryY=0.5;entryDx=0;entryDy=0;endArrow=none;endFill=0;" parent="1" source="94" target="95" edge="1">
                    <mxGeometry relative="1" as="geometry"/>
                </mxCell>
                <object label="Guard Station" placeholders="1" room="37448" healrate="100" manarate="100" sector="inside" id="94">
                    <mxCell style="rounded=0;whiteSpace=wrap;html=1;labelBackgroundColor=none;strokeColor=#000000;" parent="1" vertex="1">
                        <mxGeometry x="500" y="300" width="120" height="60" as="geometry"/>
                    </mxCell>
                </object>
                <mxCell id="111" style="edgeStyle=orthogonalEdgeStyle;rounded=0;orthogonalLoop=1;jettySize=auto;html=1;exitX=0.5;exitY=1;exitDx=0;exitDy=0;entryX=0.5;entryY=0;entryDx=0;entryDy=0;endArrow=none;endFill=0;" parent="1" source="95" target="99" edge="1">
                    <mxGeometry relative="1" as="geometry"/>
                </mxCell>
                <object label="Northeast Cells" placeholders="1" room="37449" healrate="100" manarate="100" sector="inside" id="95">
                    <mxCell style="rounded=0;whiteSpace=wrap;html=1;labelBackgroundColor=none;strokeColor=#000000;" parent="1" vertex="1">
                        <mxGeometry x="660" y="300" width="120" height="60" as="geometry"/>
                    </mxCell>
                </object>
                <mxCell id="116" style="edgeStyle=orthogonalEdgeStyle;rounded=0;orthogonalLoop=1;jettySize=auto;html=1;exitX=1;exitY=0.5;exitDx=0;exitDy=0;entryX=0;entryY=0.5;entryDx=0;entryDy=0;endArrow=none;endFill=0;" parent="1" source="96" target="97" edge="1">
                    <mxGeometry relative="1" as="geometry"/>
                </mxCell>
                <mxCell id="117" style="edgeStyle=orthogonalEdgeStyle;rounded=0;orthogonalLoop=1;jettySize=auto;html=1;exitX=0.5;exitY=0;exitDx=0;exitDy=0;entryX=0.5;entryY=1;entryDx=0;entryDy=0;endArrow=none;endFill=0;" parent="1" source="96" target="90" edge="1">
                    <mxGeometry relative="1" as="geometry"/>
                </mxCell>
                <object label="Southwest Cells" placeholders="1" room="37452" healrate="100" manarate="100" sector="inside" id="96">
                    <mxCell style="rounded=0;whiteSpace=wrap;html=1;labelBackgroundColor=none;strokeColor=#000000;" parent="1" vertex="1">
                        <mxGeometry x="180" y="400" width="120" height="60" as="geometry"/>
                    </mxCell>
                </object>
                <mxCell id="115" style="edgeStyle=orthogonalEdgeStyle;rounded=0;orthogonalLoop=1;jettySize=auto;html=1;exitX=1;exitY=0.5;exitDx=0;exitDy=0;entryX=0;entryY=0.5;entryDx=0;entryDy=0;endArrow=none;endFill=0;" parent="1" source="97" target="98" edge="1">
                    <mxGeometry relative="1" as="geometry"/>
                </mxCell>
                <object label="Southern Guard Station" placeholders="1" room="37453" healrate="100" manarate="100" sector="inside" id="97">
                    <mxCell style="rounded=0;whiteSpace=wrap;html=1;labelBackgroundColor=none;strokeColor=#000000;" parent="1" vertex="1">
                        <mxGeometry x="340" y="400" width="120" height="60" as="geometry"/>
                    </mxCell>
                </object>
                <mxCell id="113" style="edgeStyle=orthogonalEdgeStyle;rounded=0;orthogonalLoop=1;jettySize=auto;html=1;exitX=0.5;exitY=0;exitDx=0;exitDy=0;entryX=0.5;entryY=1;entryDx=0;entryDy=0;endArrow=none;endFill=0;" parent="1" source="98" target="94" edge="1">
                    <mxGeometry relative="1" as="geometry"/>
                </mxCell>
                <object label="Southern Corridor" placeholders="1" room="37454" healrate="100" manarate="100" sector="inside" id="98">
                    <mxCell style="rounded=0;whiteSpace=wrap;html=1;labelBackgroundColor=none;strokeColor=#000000;" parent="1" vertex="1">
                        <mxGeometry x="500" y="400" width="120" height="60" as="geometry"/>
                    </mxCell>
                </object>
                <mxCell id="112" style="edgeStyle=orthogonalEdgeStyle;rounded=0;orthogonalLoop=1;jettySize=auto;html=1;exitX=0;exitY=0.5;exitDx=0;exitDy=0;entryX=1;entryY=0.5;entryDx=0;entryDy=0;endArrow=none;endFill=0;" parent="1" source="99" target="98" edge="1">
                    <mxGeometry relative="1" as="geometry"/>
                </mxCell>
                <object label="Southeast Cells" placeholders="1" room="37455" healrate="100" manarate="100" sector="inside" id="99">
                    <mxCell style="rounded=0;whiteSpace=wrap;html=1;labelBackgroundColor=none;strokeColor=#000000;" parent="1" vertex="1">
                        <mxGeometry x="660" y="400" width="120" height="60" as="geometry"/>
                    </mxCell>
                </object>
                <object label="An Etched Cell" placeholders="1" room="37445" healrate="100" manarate="100" sector="inside" tags="prison" id="100">
                    <mxCell style="rounded=0;whiteSpace=wrap;html=1;labelBackgroundColor=none;strokeColor=#000000;" parent="1" vertex="1">
                        <mxGeometry x="20" y="300" width="120" height="60" as="geometry"/>
                    </mxCell>
                </object>
                <object label="A Scarified Cell" placeholders="1" room="37451" healrate="100" manarate="100" sector="cave" tags="prison" id="101">
                    <mxCell style="rounded=0;whiteSpace=wrap;html=1;labelBackgroundColor=none;strokeColor=#FF0000;strokeWidth=2;" parent="1" vertex="1">
                        <mxGeometry x="20" y="400" width="120" height="60" as="geometry"/>
                    </mxCell>
                </object>
                <object label="An Umbrageous Cell" placeholders="1" room="37457" healrate="100" manarate="100" sector="inside" tags="prison" id="102">
                    <mxCell style="rounded=0;whiteSpace=wrap;html=1;labelBackgroundColor=none;strokeColor=#000000;" parent="1" vertex="1">
                        <mxGeometry x="180" y="500" width="120" height="60" as="geometry"/>
                    </mxCell>
                </object>
                <object label="A Lacerated Cell" placeholders="1" room="37458" healrate="100" manarate="100" sector="cave" tags="prison" id="103">
                    <mxCell style="rounded=0;whiteSpace=wrap;html=1;labelBackgroundColor=none;strokeColor=#FF0000;strokeWidth=2;" parent="1" vertex="1">
                        <mxGeometry x="340" y="500" width="120" height="60" as="geometry"/>
                    </mxCell>
                </object>
                <object label="A Draining Cell" placeholders="1" room="37459" healrate="100" manarate="100" sector="inside" tags="prison" id="104">
                    <mxCell style="rounded=0;whiteSpace=wrap;html=1;labelBackgroundColor=none;strokeColor=#000000;" parent="1" vertex="1">
                        <mxGeometry x="500" y="500" width="120" height="60" as="geometry"/>
                    </mxCell>
                </object>
                <object label="A Leafy Cell" placeholders="1" room="37460" healrate="100" manarate="100" sector="inside" tags="prison" id="105">
                    <mxCell style="rounded=0;whiteSpace=wrap;html=1;labelBackgroundColor=none;strokeColor=#000000;" parent="1" vertex="1">
                        <mxGeometry x="660" y="500" width="120" height="60" as="geometry"/>
                    </mxCell>
                </object>
                <object label="A Wormy Cell" placeholders="1" room="37450" healrate="100" manarate="100" sector="inside" tags="prison" id="106">
                    <mxCell style="rounded=0;whiteSpace=wrap;html=1;labelBackgroundColor=none;strokeColor=#000000;" parent="1" vertex="1">
                        <mxGeometry x="820" y="300" width="120" height="60" as="geometry"/>
                    </mxCell>
                </object>
                <object label="A Sticky Cell" placeholders="1" room="37456" healrate="100" manarate="100" sector="inside" tags="prison" id="107">
                    <mxCell style="rounded=0;whiteSpace=wrap;html=1;labelBackgroundColor=none;strokeColor=#000000;" parent="1" vertex="1">
                        <mxGeometry x="820" y="400" width="120" height="60" as="geometry"/>
                    </mxCell>
                </object>
                <object label="" passable="false" pickable="true" key="a metallic key" id="118">
                    <mxCell style="endArrow=none;html=1;rounded=0;shadow=0;sketch=0;jumpStyle=none;exitX=1;exitY=0.5;exitDx=0;exitDy=0;entryX=0;entryY=0.5;entryDx=0;entryDy=0;endFill=0;strokeColor=#000000;" parent="1" source="95" target="106" edge="1">
                        <mxGeometry relative="1" as="geometry">
                            <mxPoint x="895" y="170" as="sourcePoint"/>
                            <mxPoint x="1040" y="170" as="targetPoint"/>
                        </mxGeometry>
                    </mxCell>
                </object>
                <mxCell id="119" value="" style="shape=mxgraph.office.security.lock_protected;html=1;outlineConnect=0;strokeWidth=1;strokeColor=#000000;fillColor=#0000FF;" parent="118" vertex="1">
                    <mxGeometry width="15" height="20" relative="1" as="geometry">
                        <mxPoint x="-7" y="-10" as="offset"/>
                    </mxGeometry>
                </mxCell>
                <object label="" passable="false" pickable="true" key="a metallic key" id="120">
                    <mxCell style="endArrow=none;html=1;rounded=0;shadow=0;sketch=0;jumpStyle=none;exitX=0.5;exitY=1;exitDx=0;exitDy=0;endFill=0;strokeColor=#000000;entryX=0.5;entryY=0;entryDx=0;entryDy=0;" parent="1" source="93" target="95" edge="1">
                        <mxGeometry relative="1" as="geometry">
                            <mxPoint x="905" y="200" as="sourcePoint"/>
                            <mxPoint x="720" y="295" as="targetPoint"/>
                        </mxGeometry>
                    </mxCell>
                </object>
                <mxCell id="121" value="" style="shape=mxgraph.office.security.lock_protected;html=1;outlineConnect=0;strokeWidth=1;strokeColor=#000000;fillColor=#0000FF;" parent="120" vertex="1">
                    <mxGeometry width="15" height="20" relative="1" as="geometry">
                        <mxPoint x="-7" y="-10" as="offset"/>
                    </mxGeometry>
                </mxCell>
                <object label="" passable="false" pickable="true" key="a metallic key" id="122">
                    <mxCell style="endArrow=none;html=1;rounded=0;shadow=0;sketch=0;jumpStyle=none;exitX=0.5;exitY=1;exitDx=0;exitDy=0;entryX=0.5;entryY=0;entryDx=0;entryDy=0;endFill=0;strokeColor=#000000;" parent="1" source="92" target="94" edge="1">
                        <mxGeometry relative="1" as="geometry">
                            <mxPoint x="790" y="115" as="sourcePoint"/>
                            <mxPoint x="935" y="115" as="targetPoint"/>
                        </mxGeometry>
                    </mxCell>
                </object>
                <mxCell id="123" value="" style="shape=mxgraph.office.security.lock_protected;html=1;outlineConnect=0;strokeWidth=1;strokeColor=#000000;fillColor=#0000FF;" parent="122" vertex="1">
                    <mxGeometry width="15" height="20" relative="1" as="geometry">
                        <mxPoint x="-7" y="-10" as="offset"/>
                    </mxGeometry>
                </mxCell>
                <object label="" passable="false" pickable="true" key="a metallic key" id="124">
                    <mxCell style="endArrow=none;html=1;rounded=0;shadow=0;sketch=0;jumpStyle=none;exitX=1;exitY=0.5;exitDx=0;exitDy=0;entryX=0;entryY=0.5;entryDx=0;entryDy=0;endFill=0;strokeColor=#000000;" parent="1" source="99" target="107" edge="1">
                        <mxGeometry relative="1" as="geometry">
                            <mxPoint x="790" y="115" as="sourcePoint"/>
                            <mxPoint x="935" y="115" as="targetPoint"/>
                        </mxGeometry>
                    </mxCell>
                </object>
                <mxCell id="125" value="" style="shape=mxgraph.office.security.lock_protected;html=1;outlineConnect=0;strokeWidth=1;strokeColor=#000000;fillColor=#0000FF;" parent="124" vertex="1">
                    <mxGeometry width="15" height="20" relative="1" as="geometry">
                        <mxPoint x="-7" y="-10" as="offset"/>
                    </mxGeometry>
                </mxCell>
                <object label="" passable="false" pickable="true" key="a metallic key" id="126">
                    <mxCell style="endArrow=none;html=1;rounded=0;shadow=0;sketch=0;jumpStyle=none;exitX=0.5;exitY=1;exitDx=0;exitDy=0;entryX=0.5;entryY=0;entryDx=0;entryDy=0;endFill=0;strokeColor=#000000;" parent="1" source="99" target="105" edge="1">
                        <mxGeometry relative="1" as="geometry">
                            <mxPoint x="790" y="115" as="sourcePoint"/>
                            <mxPoint x="935" y="115" as="targetPoint"/>
                        </mxGeometry>
                    </mxCell>
                </object>
                <mxCell id="127" value="" style="shape=mxgraph.office.security.lock_protected;html=1;outlineConnect=0;strokeWidth=1;strokeColor=#000000;fillColor=#0000FF;" parent="126" vertex="1">
                    <mxGeometry width="15" height="20" relative="1" as="geometry">
                        <mxPoint x="-7" y="-10" as="offset"/>
                    </mxGeometry>
                </mxCell>
                <object label="" passable="false" pickable="true" key="a metallic key" id="128">
                    <mxCell style="endArrow=none;html=1;rounded=0;shadow=0;sketch=0;jumpStyle=none;exitX=0.5;exitY=1;exitDx=0;exitDy=0;entryX=0.5;entryY=0;entryDx=0;entryDy=0;endFill=0;strokeColor=#000000;" parent="1" source="98" target="104" edge="1">
                        <mxGeometry relative="1" as="geometry">
                            <mxPoint x="790" y="115" as="sourcePoint"/>
                            <mxPoint x="935" y="115" as="targetPoint"/>
                        </mxGeometry>
                    </mxCell>
                </object>
                <mxCell id="129" value="" style="shape=mxgraph.office.security.lock_protected;html=1;outlineConnect=0;strokeWidth=1;strokeColor=#000000;fillColor=#0000FF;" parent="128" vertex="1">
                    <mxGeometry width="15" height="20" relative="1" as="geometry">
                        <mxPoint x="-7" y="-10" as="offset"/>
                    </mxGeometry>
                </mxCell>
                <object label="" passable="false" pickable="true" key="a metallic key" id="130">
                    <mxCell style="endArrow=none;html=1;rounded=0;shadow=0;sketch=0;jumpStyle=none;exitX=0.5;exitY=1;exitDx=0;exitDy=0;entryX=0.5;entryY=0;entryDx=0;entryDy=0;endFill=0;strokeColor=#000000;" parent="1" source="97" target="103" edge="1">
                        <mxGeometry relative="1" as="geometry">
                            <mxPoint x="790" y="115" as="sourcePoint"/>
                            <mxPoint x="935" y="115" as="targetPoint"/>
                        </mxGeometry>
                    </mxCell>
                </object>
                <mxCell id="131" value="" style="shape=mxgraph.office.security.lock_protected;html=1;outlineConnect=0;strokeWidth=1;strokeColor=#000000;fillColor=#0000FF;" parent="130" vertex="1">
                    <mxGeometry width="15" height="20" relative="1" as="geometry">
                        <mxPoint x="-7" y="-10" as="offset"/>
                    </mxGeometry>
                </mxCell>
                <object label="" passable="false" pickable="true" key="a metallic key" id="132">
                    <mxCell style="endArrow=none;html=1;rounded=0;shadow=0;sketch=0;jumpStyle=none;exitX=0.5;exitY=1;exitDx=0;exitDy=0;entryX=0.5;entryY=0;entryDx=0;entryDy=0;endFill=0;strokeColor=#000000;" parent="1" source="88" target="91" edge="1">
                        <mxGeometry relative="1" as="geometry">
                            <mxPoint x="790" y="115" as="sourcePoint"/>
                            <mxPoint x="935" y="115" as="targetPoint"/>
                        </mxGeometry>
                    </mxCell>
                </object>
                <mxCell id="133" value="" style="shape=mxgraph.office.security.lock_protected;html=1;outlineConnect=0;strokeWidth=1;strokeColor=#000000;fillColor=#0000FF;" parent="132" vertex="1">
                    <mxGeometry width="15" height="20" relative="1" as="geometry">
                        <mxPoint x="-7" y="-10" as="offset"/>
                    </mxGeometry>
                </mxCell>
                <object label="" passable="false" pickable="true" key="a metallic key" id="134">
                    <mxCell style="endArrow=none;html=1;rounded=0;shadow=0;sketch=0;jumpStyle=none;exitX=0.5;exitY=1;exitDx=0;exitDy=0;entryX=0.5;entryY=0;entryDx=0;entryDy=0;endFill=0;strokeColor=#000000;" parent="1" source="89" target="90" edge="1">
                        <mxGeometry relative="1" as="geometry">
                            <mxPoint x="790" y="115" as="sourcePoint"/>
                            <mxPoint x="935" y="115" as="targetPoint"/>
                        </mxGeometry>
                    </mxCell>
                </object>
                <mxCell id="135" value="" style="shape=mxgraph.office.security.lock_protected;html=1;outlineConnect=0;strokeWidth=1;strokeColor=#000000;fillColor=#0000FF;" parent="134" vertex="1">
                    <mxGeometry width="15" height="20" relative="1" as="geometry">
                        <mxPoint x="-7" y="-10" as="offset"/>
                    </mxGeometry>
                </mxCell>
                <object label="" passable="false" pickable="true" key="a metallic key" id="136">
                    <mxCell style="endArrow=none;html=1;rounded=0;shadow=0;sketch=0;jumpStyle=none;exitX=1;exitY=0.5;exitDx=0;exitDy=0;entryX=0;entryY=0.5;entryDx=0;entryDy=0;endFill=0;strokeColor=#000000;" parent="1" source="100" target="90" edge="1">
                        <mxGeometry relative="1" as="geometry">
                            <mxPoint x="790" y="115" as="sourcePoint"/>
                            <mxPoint x="935" y="115" as="targetPoint"/>
                        </mxGeometry>
                    </mxCell>
                </object>
                <mxCell id="137" value="" style="shape=mxgraph.office.security.lock_protected;html=1;outlineConnect=0;strokeWidth=1;strokeColor=#000000;fillColor=#0000FF;" parent="136" vertex="1">
                    <mxGeometry width="15" height="20" relative="1" as="geometry">
                        <mxPoint x="-7" y="-10" as="offset"/>
                    </mxGeometry>
                </mxCell>
                <object label="" passable="false" pickable="true" key="a metallic key" id="138">
                    <mxCell style="endArrow=none;html=1;rounded=0;shadow=0;sketch=0;jumpStyle=none;exitX=1;exitY=0.5;exitDx=0;exitDy=0;entryX=0;entryY=0.5;entryDx=0;entryDy=0;endFill=0;strokeColor=#000000;" parent="1" source="101" target="96" edge="1">
                        <mxGeometry relative="1" as="geometry">
                            <mxPoint x="790" y="115" as="sourcePoint"/>
                            <mxPoint x="935" y="115" as="targetPoint"/>
                        </mxGeometry>
                    </mxCell>
                </object>
                <mxCell id="139" value="" style="shape=mxgraph.office.security.lock_protected;html=1;outlineConnect=0;strokeWidth=1;strokeColor=#000000;fillColor=#0000FF;" parent="138" vertex="1">
                    <mxGeometry width="15" height="20" relative="1" as="geometry">
                        <mxPoint x="-7" y="-10" as="offset"/>
                    </mxGeometry>
                </mxCell>
                <object label="" passable="false" pickable="true" key="a metallic key" id="140">
                    <mxCell style="endArrow=none;html=1;rounded=0;shadow=0;sketch=0;jumpStyle=none;exitX=0.5;exitY=1;exitDx=0;exitDy=0;entryX=0.5;entryY=0;entryDx=0;entryDy=0;endFill=0;strokeColor=#000000;" parent="1" source="96" target="102" edge="1">
                        <mxGeometry relative="1" as="geometry">
                            <mxPoint x="790" y="115" as="sourcePoint"/>
                            <mxPoint x="935" y="115" as="targetPoint"/>
                        </mxGeometry>
                    </mxCell>
                </object>
                <mxCell id="141" value="" style="shape=mxgraph.office.security.lock_protected;html=1;outlineConnect=0;strokeWidth=1;strokeColor=#000000;fillColor=#0000FF;" parent="140" vertex="1">
                    <mxGeometry width="15" height="20" relative="1" as="geometry">
                        <mxPoint x="-7" y="-10" as="offset"/>
                    </mxGeometry>
                </mxCell>
                <mxCell id="153" value="&lt;font color=&quot;#006600&quot;&gt;&lt;b&gt;(ascend southwest)&lt;/b&gt;&lt;/font&gt;" style="text;html=1;strokeColor=none;fillColor=none;align=center;verticalAlign=middle;whiteSpace=wrap;rounded=0;labelBackgroundColor=none;fontSize=11;fontColor=#0000FF;" parent="1" vertex="1">
                    <mxGeometry x="1180" y="402" width="120" height="10" as="geometry"/>
                </mxCell>
                <mxCell id="155" value="&lt;font color=&quot;#006600&quot;&gt;&lt;b&gt;(ascend southeast)&lt;/b&gt;&lt;/font&gt;" style="text;html=1;strokeColor=none;fillColor=none;align=center;verticalAlign=middle;whiteSpace=wrap;rounded=0;labelBackgroundColor=none;fontSize=11;fontColor=#0000FF;" parent="1" vertex="1">
                    <mxGeometry x="1340" y="402" width="120" height="10" as="geometry"/>
                </mxCell>
                <mxCell id="156" value="&lt;font color=&quot;#006600&quot;&gt;&lt;b&gt;(ascend northwest)&lt;/b&gt;&lt;/font&gt;" style="text;html=1;strokeColor=none;fillColor=none;align=center;verticalAlign=middle;whiteSpace=wrap;rounded=0;labelBackgroundColor=none;fontSize=11;fontColor=#0000FF;" parent="1" vertex="1">
                    <mxGeometry x="1180" y="202" width="120" height="10" as="geometry"/>
                </mxCell>
                <mxCell id="157" value="&lt;font color=&quot;#006600&quot;&gt;&lt;b&gt;(ascend northeast)&lt;/b&gt;&lt;/font&gt;" style="text;html=1;strokeColor=none;fillColor=none;align=center;verticalAlign=middle;whiteSpace=wrap;rounded=0;labelBackgroundColor=none;fontSize=11;fontColor=#0000FF;" parent="1" vertex="1">
                    <mxGeometry x="1340" y="202" width="120" height="10" as="geometry"/>
                </mxCell>
                <mxCell id="159" value="" style="group" parent="1" vertex="1" connectable="0">
                    <mxGeometry x="660" y="98" width="120" height="62" as="geometry"/>
                </mxCell>
                <object label="Waiting Room" placeholders="1" room="37429" healrate="100" manarate="100" sector="inside" id="142">
                    <mxCell style="rounded=0;whiteSpace=wrap;html=1;labelBackgroundColor=none;strokeColor=#000000;gradientColor=none;fillColor=#FFFFFF;" parent="159" vertex="1">
                        <mxGeometry y="2" width="120" height="60" as="geometry"/>
                    </mxCell>
                </object>
                <mxCell id="150" value="(enter dome)" style="text;html=1;strokeColor=none;fillColor=none;align=center;verticalAlign=middle;whiteSpace=wrap;rounded=0;labelBackgroundColor=none;fontSize=11;fontStyle=1;fontColor=#0000FF;" parent="159" vertex="1">
                    <mxGeometry width="120" height="20" as="geometry"/>
                </mxCell>
                <mxCell id="160" value="" style="group;align=center;" parent="1" vertex="1" connectable="0">
                    <mxGeometry x="1221" y="98" width="242" height="69" as="geometry"/>
                </mxCell>
                <object label="Repulsive Dome" placeholders="1" room="37417" healrate="-50" manarate="-50" sector="dead_field" id="147">
                    <mxCell style="rounded=0;whiteSpace=wrap;html=1;labelBackgroundColor=none;strokeColor=#000000;fillColor=#FFFFFF;gradientColor=none;" parent="160" vertex="1">
                        <mxGeometry y="2" width="120" height="60" as="geometry"/>
                    </mxCell>
                </object>
                <mxCell id="152" value="&lt;b&gt;&lt;font color=&quot;#006600&quot;&gt;(descend stairs)&lt;/font&gt;&lt;/b&gt;" style="text;html=1;strokeColor=none;fillColor=none;align=center;verticalAlign=middle;whiteSpace=wrap;rounded=0;labelBackgroundColor=none;fontSize=11;fontColor=#0000FF;" parent="160" vertex="1">
                    <mxGeometry width="120" height="20" as="geometry"/>
                </mxCell>
                <mxCell id="254" value="&lt;font color=&quot;#006633&quot;&gt;(enter dome)&lt;/font&gt;" style="text;html=1;strokeColor=none;fillColor=none;align=center;verticalAlign=middle;whiteSpace=wrap;rounded=0;labelBackgroundColor=none;fontSize=11;fontStyle=1;fontColor=#0000FF;" parent="160" vertex="1">
                    <mxGeometry y="11" width="120" height="20" as="geometry"/>
                </mxCell>
                <mxCell id="151" value="&lt;b&gt;enter dome&lt;/b&gt;" style="text;html=1;strokeColor=none;fillColor=none;align=left;verticalAlign=middle;whiteSpace=wrap;rounded=0;labelBackgroundColor=none;fontSize=11;fontColor=#0000FF;" parent="160" vertex="1">
                    <mxGeometry x="124" y="-1" width="106" height="20" as="geometry"/>
                </mxCell>
                <mxCell id="158" value="&lt;div style=&quot;&quot;&gt;&lt;b style=&quot;color: rgb(0 , 102 , 0)&quot;&gt;ascend northwest&lt;/b&gt;&lt;/div&gt;&lt;font color=&quot;#006600&quot;&gt;&lt;div style=&quot;&quot;&gt;&lt;b&gt;ascend northeast&lt;/b&gt;&lt;/div&gt;&lt;b&gt;&lt;div style=&quot;&quot;&gt;&lt;b&gt;ascend southwest&lt;/b&gt;&lt;/div&gt;&lt;div style=&quot;&quot;&gt;&lt;b&gt;ascend southeast&lt;/b&gt;&lt;/div&gt;&lt;/b&gt;&lt;/font&gt;" style="text;html=1;strokeColor=none;fillColor=none;align=left;verticalAlign=middle;whiteSpace=wrap;rounded=0;labelBackgroundColor=none;fontSize=11;fontColor=#0000FF;" parent="160" vertex="1">
                    <mxGeometry x="124" y="12" width="118" height="55" as="geometry"/>
                </mxCell>
                <mxCell id="163" value="" style="group" parent="1" vertex="1" connectable="0">
                    <mxGeometry x="860" y="700" width="120" height="80" as="geometry"/>
                </mxCell>
                <object label="An Uncommon Sculpture" placeholders="1" room="37406" healrate="100" manarate="100" sector="castle" id="26">
                    <mxCell style="rounded=0;whiteSpace=wrap;html=1;strokeColor=#000000;fillColor=#FFFFFF;" parent="163" vertex="1">
                        <mxGeometry y="20" width="120" height="60" as="geometry"/>
                    </mxCell>
                </object>
                <mxCell id="148" value="For key: *greet statue" style="text;html=1;strokeColor=none;fillColor=none;align=center;verticalAlign=middle;whiteSpace=wrap;rounded=0;labelBackgroundColor=none;" parent="163" vertex="1">
                    <mxGeometry width="120" height="20" as="geometry"/>
                </mxCell>
                <mxCell id="207" value="" style="sketch=0;pointerEvents=1;shadow=0;dashed=0;html=1;labelPosition=center;verticalLabelPosition=bottom;verticalAlign=top;outlineConnect=0;align=center;shape=mxgraph.office.security.key_permissions;strokeWidth=1;direction=south;strokeColor=#000000;fillColor=#FF0000;" parent="163" vertex="1">
                    <mxGeometry x="90.00500000000011" y="24.995000000000005" width="25" height="11.79" as="geometry"/>
                </mxCell>
                <mxCell id="164" value="" style="group" parent="1" vertex="1" connectable="0">
                    <mxGeometry x="640" y="180" height="100" as="geometry"/>
                </mxCell>
                <mxCell id="144" value="" style="endArrow=none;html=1;" parent="164" edge="1">
                    <mxGeometry width="50" height="50" relative="1" as="geometry">
                        <mxPoint y="100" as="sourcePoint"/>
                        <mxPoint as="targetPoint"/>
                    </mxGeometry>
                </mxCell>
                <mxCell id="145" value="" style="endArrow=none;html=1;entryX=0;entryY=1;entryDx=0;entryDy=0;" parent="164" target="142" edge="1">
                    <mxGeometry width="50" height="50" relative="1" as="geometry">
                        <mxPoint as="sourcePoint"/>
                        <mxPoint x="245" y="-110" as="targetPoint"/>
                    </mxGeometry>
                </mxCell>
                <mxCell id="146" value="" style="endArrow=none;html=1;exitX=1;exitY=0;exitDx=0;exitDy=0;" parent="164" source="94" edge="1">
                    <mxGeometry width="50" height="50" relative="1" as="geometry">
                        <mxPoint x="195" y="-60" as="sourcePoint"/>
                        <mxPoint y="100" as="targetPoint"/>
                    </mxGeometry>
                </mxCell>
                <mxCell id="165" value="&lt;b&gt;&lt;font color=&quot;#ff0000&quot;&gt;wear crank;turn crank&lt;/font&gt;&lt;/b&gt;" style="text;html=1;strokeColor=none;fillColor=none;align=center;verticalAlign=middle;whiteSpace=wrap;rounded=0;labelBackgroundColor=none;fontSize=11;fontColor=#0000FF;" parent="1" vertex="1">
                    <mxGeometry x="1018" y="640" width="125" height="20" as="geometry"/>
                </mxCell>
                <object label="Ancient Elevator" placeholders="1" room="37440" healrate="100" manarate="100" sector="inside" id="166">
                    <mxCell style="rounded=0;whiteSpace=wrap;html=1;labelBackgroundColor=none;fontSize=12;fontColor=#000000;strokeWidth=1;fillColor=#FFFFFF;gradientColor=none;" parent="1" vertex="1">
                        <mxGeometry x="340" y="820" width="120" height="60" as="geometry"/>
                    </mxCell>
                </object>
                <object label="Below the Green Chamber" placeholders="1" room="37428" healrate="100" manarate="100" sector="inside" id="167">
                    <mxCell style="rounded=0;whiteSpace=wrap;html=1;labelBackgroundColor=none;fontSize=12;fontColor=#000000;strokeWidth=1;fillColor=#FFFFFF;gradientColor=none;" parent="1" vertex="1">
                        <mxGeometry x="340" y="720" width="120" height="60" as="geometry"/>
                    </mxCell>
                </object>
                <mxCell id="184" style="edgeStyle=elbowEdgeStyle;rounded=0;orthogonalLoop=1;jettySize=auto;html=1;exitX=0.5;exitY=1;exitDx=0;exitDy=0;entryX=0.5;entryY=0;entryDx=0;entryDy=0;fontSize=11;fontColor=#0000FF;endArrow=none;endFill=0;" parent="1" source="168" target="169" edge="1">
                    <mxGeometry relative="1" as="geometry"/>
                </mxCell>
                <object label="A Green and White Corner" placeholders="1" room="37430" healrate="100" manarate="100" sector="inside" id="168">
                    <mxCell style="rounded=0;whiteSpace=wrap;html=1;labelBackgroundColor=none;fontSize=12;fontColor=#000000;strokeWidth=1;fillColor=#FFFFFF;gradientColor=none;" parent="1" vertex="1">
                        <mxGeometry x="500" y="720" width="120" height="60" as="geometry"/>
                    </mxCell>
                </object>
                <mxCell id="185" style="rounded=0;orthogonalLoop=1;jettySize=auto;html=1;exitX=0.5;exitY=1;exitDx=0;exitDy=0;entryX=0.5;entryY=0;entryDx=0;entryDy=0;fontSize=11;fontColor=#0000FF;endArrow=none;endFill=0;" parent="1" source="169" target="170" edge="1">
                    <mxGeometry relative="1" as="geometry"/>
                </mxCell>
                <object label="Below the White Chamber" placeholders="1" room="37436" healrate="100" manarate="100" sector="inside" id="169">
                    <mxCell style="rounded=0;whiteSpace=wrap;html=1;labelBackgroundColor=none;fontSize=12;fontColor=#000000;strokeWidth=1;fillColor=#FFFFFF;gradientColor=none;" parent="1" vertex="1">
                        <mxGeometry x="500" y="820" width="120" height="60" as="geometry"/>
                    </mxCell>
                </object>
                <object label="A Red and White Corner" placeholders="1" room="37439" healrate="100" manarate="100" sector="inside" id="170">
                    <mxCell style="rounded=0;whiteSpace=wrap;html=1;labelBackgroundColor=none;fontSize=12;fontColor=#000000;strokeWidth=1;fillColor=#FFFFFF;gradientColor=none;" parent="1" vertex="1">
                        <mxGeometry x="500" y="920" width="120" height="60" as="geometry"/>
                    </mxCell>
                </object>
                <mxCell id="186" style="rounded=0;orthogonalLoop=1;jettySize=auto;html=1;exitX=1;exitY=0.5;exitDx=0;exitDy=0;entryX=0;entryY=0.5;entryDx=0;entryDy=0;fontSize=11;fontColor=#0000FF;endArrow=none;endFill=0;" parent="1" source="171" target="170" edge="1">
                    <mxGeometry relative="1" as="geometry"/>
                </mxCell>
                <object label="Below the Red Chamber" placeholders="1" room="37438" healrate="100" manarate="100" sector="inside" id="171">
                    <mxCell style="rounded=0;whiteSpace=wrap;html=1;labelBackgroundColor=none;fontSize=12;fontColor=#000000;strokeWidth=1;fillColor=#FFFFFF;gradientColor=none;" parent="1" vertex="1">
                        <mxGeometry x="340" y="920" width="120" height="60" as="geometry"/>
                    </mxCell>
                </object>
                <mxCell id="187" style="edgeStyle=none;rounded=0;orthogonalLoop=1;jettySize=auto;html=1;exitX=1;exitY=0.5;exitDx=0;exitDy=0;entryX=0;entryY=0.5;entryDx=0;entryDy=0;fontSize=11;fontColor=#0000FF;endArrow=none;endFill=0;" parent="1" source="172" target="171" edge="1">
                    <mxGeometry relative="1" as="geometry"/>
                </mxCell>
                <mxCell id="188" style="edgeStyle=none;rounded=0;orthogonalLoop=1;jettySize=auto;html=1;exitX=0.5;exitY=0;exitDx=0;exitDy=0;entryX=0.5;entryY=1;entryDx=0;entryDy=0;fontSize=11;fontColor=#0000FF;endArrow=none;endFill=0;" parent="1" source="172" target="173" edge="1">
                    <mxGeometry relative="1" as="geometry"/>
                </mxCell>
                <object label="A Red and Blue Corner" placeholders="1" room="37437" healrate="100" manarate="100" sector="inside" id="172">
                    <mxCell style="rounded=0;whiteSpace=wrap;html=1;labelBackgroundColor=none;fontSize=12;fontColor=#000000;strokeWidth=1;fillColor=#FFFFFF;gradientColor=none;" parent="1" vertex="1">
                        <mxGeometry x="180" y="920" width="120" height="60" as="geometry"/>
                    </mxCell>
                </object>
                <object label="Below the Blue Chamber" placeholders="1" room="37433" healrate="100" manarate="100" sector="inside" id="173">
                    <mxCell style="rounded=0;whiteSpace=wrap;html=1;labelBackgroundColor=none;fontSize=12;fontColor=#000000;strokeWidth=1;fillColor=#FFFFFF;gradientColor=none;" parent="1" vertex="1">
                        <mxGeometry x="180" y="820" width="120" height="60" as="geometry"/>
                    </mxCell>
                </object>
                <mxCell id="192" style="edgeStyle=none;rounded=0;orthogonalLoop=1;jettySize=auto;html=1;exitX=1;exitY=0.5;exitDx=0;exitDy=0;entryX=0;entryY=0.5;entryDx=0;entryDy=0;fontSize=11;fontColor=#0000FF;endArrow=none;endFill=0;" parent="1" source="174" target="167" edge="1">
                    <mxGeometry relative="1" as="geometry"/>
                </mxCell>
                <object label="A Red and Green Corner" placeholders="1" room="37427" healrate="100" manarate="100" sector="inside" id="174">
                    <mxCell style="rounded=0;whiteSpace=wrap;html=1;labelBackgroundColor=none;fontSize=12;fontColor=#000000;strokeWidth=1;fillColor=#FFFFFF;gradientColor=none;" parent="1" vertex="1">
                        <mxGeometry x="180" y="720" width="120" height="60" as="geometry"/>
                    </mxCell>
                </object>
                <object label="An Opalescent Room" placeholders="1" room="37435" healrate="100" manarate="100" sector="inside" tags="prison" id="176">
                    <mxCell style="rounded=0;whiteSpace=wrap;html=1;labelBackgroundColor=none;fontSize=12;strokeWidth=1;fillColor=#FFFFFF;gradientColor=none;" parent="1" vertex="1">
                        <mxGeometry x="660" y="720" width="120" height="60" as="geometry"/>
                    </mxCell>
                </object>
                <object label="An Iridescent Room" placeholders="1" room="37434" healrate="100" manarate="100" sector="inside" tags="prison" id="177">
                    <mxCell style="rounded=0;whiteSpace=wrap;html=1;labelBackgroundColor=none;fontSize=12;fontColor=#000000;strokeWidth=1;fillColor=#FFFFFF;gradientColor=none;" parent="1" vertex="1">
                        <mxGeometry x="20" y="720" width="120" height="60" as="geometry"/>
                    </mxCell>
                </object>
                <object label="" placeholders="1" passable="true" id="178">
                    <mxCell style="endArrow=none;html=1;endFill=0;fontSize=11;fontColor=#0000FF;entryX=0.5;entryY=1;entryDx=0;entryDy=0;exitX=0.5;exitY=0;exitDx=0;exitDy=0;" parent="1" source="166" target="167" edge="1">
                        <mxGeometry relative="1" as="geometry">
                            <mxPoint x="-60" y="662" as="sourcePoint"/>
                            <mxPoint x="-60" y="615" as="targetPoint"/>
                        </mxGeometry>
                    </mxCell>
                </object>
                <mxCell id="179" value="&lt;font style=&quot;font-size: 20px;&quot;&gt;|&lt;/font&gt;" style="edgeLabel;resizable=0;html=1;align=center;verticalAlign=middle;labelBackgroundColor=none;rotation=90;fontSize=20;" parent="178" connectable="0" vertex="1">
                    <mxGeometry relative="1" as="geometry">
                        <mxPoint x="4" y="-2" as="offset"/>
                    </mxGeometry>
                </mxCell>
                <mxCell id="181" value="" style="endArrow=none;html=1;fontSize=11;fontColor=#0000FF;entryX=1;entryY=0.5;entryDx=0;entryDy=0;exitX=0;exitY=0.5;exitDx=0;exitDy=0;edgeStyle=elbowEdgeStyle;" parent="1" source="168" target="167" edge="1">
                    <mxGeometry width="50" height="50" relative="1" as="geometry">
                        <mxPoint x="-85" y="665" as="sourcePoint"/>
                        <mxPoint x="-35" y="615" as="targetPoint"/>
                    </mxGeometry>
                </mxCell>
                <mxCell id="183" value="" style="endArrow=none;html=1;fontSize=11;fontColor=#0000FF;exitX=0.5;exitY=1;exitDx=0;exitDy=0;entryX=0.5;entryY=0;entryDx=0;entryDy=0;" parent="1" source="174" target="173" edge="1">
                    <mxGeometry width="50" height="50" relative="1" as="geometry">
                        <mxPoint x="220" y="670" as="sourcePoint"/>
                        <mxPoint x="270" y="620" as="targetPoint"/>
                    </mxGeometry>
                </mxCell>
                <object label="&lt;font color=&quot;#000000&quot; style=&quot;font-size: 12px&quot;&gt;A Deep Red Room&lt;/font&gt;" placeholders="1" room="37432" healrate="100" manarate="100" sector="inside" tags="prison" id="193">
                    <mxCell style="rounded=0;whiteSpace=wrap;html=1;labelBackgroundColor=none;fontSize=11;fontColor=#0000FF;strokeColor=#000000;strokeWidth=1;fillColor=#FFFFFF;gradientColor=none;" parent="1" vertex="1">
                        <mxGeometry x="660" y="820" width="120" height="60" as="geometry"/>
                    </mxCell>
                </object>
                <mxCell id="196" value="" style="endArrow=none;html=1;fontSize=11;fontColor=#0000FF;entryX=0;entryY=1;entryDx=0;entryDy=0;" parent="1" target="193" edge="1">
                    <mxGeometry width="50" height="50" relative="1" as="geometry">
                        <mxPoint x="640" y="900" as="sourcePoint"/>
                        <mxPoint x="-35" y="615" as="targetPoint"/>
                    </mxGeometry>
                </mxCell>
                <mxCell id="199" style="edgeStyle=none;rounded=0;orthogonalLoop=1;jettySize=auto;html=1;fontSize=11;fontColor=#0000FF;endArrow=none;endFill=0;jumpStyle=arc;jumpSize=8;" parent="1" edge="1">
                    <mxGeometry relative="1" as="geometry">
                        <mxPoint x="480" y="900" as="sourcePoint"/>
                        <mxPoint x="640" y="900" as="targetPoint"/>
                    </mxGeometry>
                </mxCell>
                <mxCell id="200" value="&lt;b&gt;&lt;font color=&quot;#ff0000&quot; style=&quot;font-size: 10px&quot;&gt;(wear crank;turn crank)&lt;/font&gt;&lt;/b&gt;" style="text;html=1;strokeColor=none;fillColor=none;align=center;verticalAlign=middle;whiteSpace=wrap;rounded=0;labelBackgroundColor=none;fontSize=11;fontColor=#0000FF;" parent="1" vertex="1">
                    <mxGeometry x="338" y="817" width="125" height="20" as="geometry"/>
                </mxCell>
                <mxCell id="201" value="&lt;font color=&quot;#ff0000&quot; style=&quot;font-size: 11px&quot;&gt;&lt;b&gt;push 2&lt;/b&gt;&lt;/font&gt;" style="text;html=1;strokeColor=none;fillColor=none;align=center;verticalAlign=middle;whiteSpace=wrap;rounded=0;labelBackgroundColor=none;fontSize=12;fontColor=#000000;" parent="1" vertex="1">
                    <mxGeometry x="380" y="862" width="40" height="20" as="geometry"/>
                </mxCell>
                <mxCell id="202" value="&lt;font color=&quot;#ff0000&quot; style=&quot;font-size: 11px&quot;&gt;&lt;b&gt;(push 2)&lt;/b&gt;&lt;/font&gt;" style="text;html=1;strokeColor=none;fillColor=none;align=center;verticalAlign=middle;whiteSpace=wrap;rounded=0;labelBackgroundColor=none;fontSize=12;fontColor=#000000;" parent="1" vertex="1">
                    <mxGeometry x="1020" y="578" width="120" height="20" as="geometry"/>
                </mxCell>
                <mxCell id="205" value="&lt;font style=&quot;font-size: 20px&quot; face=&quot;Tahoma&quot;&gt;Level Range: 80 - 90&lt;/font&gt;" style="text;html=1;strokeColor=none;fillColor=none;align=left;verticalAlign=middle;whiteSpace=wrap;rounded=0;" parent="1" vertex="1">
                    <mxGeometry x="20" y="60" width="250" height="20" as="geometry"/>
                </mxCell>
                <mxCell id="206" value="&lt;font style=&quot;font-size: 20px&quot; face=&quot;Tahoma&quot;&gt;Area Creator: Teleron&lt;/font&gt;" style="text;html=1;strokeColor=none;fillColor=none;align=left;verticalAlign=middle;whiteSpace=wrap;rounded=0;" parent="1" vertex="1">
                    <mxGeometry x="20" y="90" width="250" height="20" as="geometry"/>
                </mxCell>
                <mxCell id="149" value="For key: dig;get crank" style="text;html=1;strokeColor=none;fillColor=none;align=center;verticalAlign=middle;whiteSpace=wrap;rounded=0;labelBackgroundColor=none;" parent="1" vertex="1">
                    <mxGeometry x="1500" y="460" width="120" height="20" as="geometry"/>
                </mxCell>
                <mxCell id="161" value="" style="group" parent="1" vertex="1" connectable="0">
                    <mxGeometry x="1500" y="400" width="120" height="60" as="geometry"/>
                </mxCell>
                <object label="A Creeping Room" placeholders="1" room="37414" healrate="100" manarate="100" sector="vine" tags="nosummon noport" id="52">
                    <mxCell style="rounded=0;whiteSpace=wrap;html=1;fillColor=#FFFFFF;strokeColor=#FF0000;strokeWidth=2;" parent="161" vertex="1">
                        <mxGeometry width="120" height="60" as="geometry"/>
                    </mxCell>
                </object>
                <mxCell id="87" value="" style="sketch=0;pointerEvents=1;shadow=0;dashed=0;html=1;labelPosition=center;verticalLabelPosition=bottom;verticalAlign=top;outlineConnect=0;align=center;shape=mxgraph.office.security.key_permissions;strokeWidth=1;direction=south;strokeColor=#000000;fillColor=#00FF00;" parent="161" vertex="1">
                    <mxGeometry x="90.00500000000011" y="4.9950000000000045" width="25" height="11.79" as="geometry"/>
                </mxCell>
                <mxCell id="208" value="" style="sketch=0;pointerEvents=1;shadow=0;dashed=0;html=1;labelPosition=center;verticalLabelPosition=bottom;verticalAlign=top;outlineConnect=0;align=center;shape=mxgraph.office.security.key_permissions;strokeWidth=1;direction=south;strokeColor=#000000;fillColor=#0000FF;" parent="1" vertex="1">
                    <mxGeometry x="34.99500000000011" y="234.995" width="25" height="11.79" as="geometry"/>
                </mxCell>
                <mxCell id="209" value="a metallic key&lt;br&gt;drops off an ogre guard" style="text;html=1;strokeColor=none;fillColor=none;align=right;verticalAlign=middle;whiteSpace=wrap;rounded=0;" parent="1" vertex="1">
                    <mxGeometry x="5" y="238" width="140" height="20" as="geometry"/>
                </mxCell>
                <mxCell id="210" value="&lt;font color=&quot;#006600&quot;&gt;&lt;b&gt;descend stairs&lt;/b&gt;&lt;/font&gt;" style="text;html=1;strokeColor=none;fillColor=none;align=center;verticalAlign=middle;whiteSpace=wrap;rounded=0;labelBackgroundColor=none;fontSize=11;fontColor=#0000FF;" parent="1" vertex="1">
                    <mxGeometry x="1180" y="248" width="120" height="10" as="geometry"/>
                </mxCell>
                <mxCell id="211" value="&lt;font color=&quot;#006600&quot;&gt;&lt;b&gt;descend stairs&lt;/b&gt;&lt;/font&gt;" style="text;html=1;strokeColor=none;fillColor=none;align=center;verticalAlign=middle;whiteSpace=wrap;rounded=0;labelBackgroundColor=none;fontSize=11;fontColor=#0000FF;" parent="1" vertex="1">
                    <mxGeometry x="1340" y="248" width="120" height="10" as="geometry"/>
                </mxCell>
                <mxCell id="212" value="&lt;font color=&quot;#006600&quot;&gt;&lt;b&gt;descend stairs&lt;/b&gt;&lt;/font&gt;" style="text;html=1;strokeColor=none;fillColor=none;align=center;verticalAlign=middle;whiteSpace=wrap;rounded=0;labelBackgroundColor=none;fontSize=11;fontColor=#0000FF;" parent="1" vertex="1">
                    <mxGeometry x="1180" y="448" width="120" height="10" as="geometry"/>
                </mxCell>
                <mxCell id="213" value="&lt;font color=&quot;#006600&quot;&gt;&lt;b&gt;descend stairs&lt;/b&gt;&lt;/font&gt;" style="text;html=1;strokeColor=none;fillColor=none;align=center;verticalAlign=middle;whiteSpace=wrap;rounded=0;labelBackgroundColor=none;fontSize=11;fontColor=#0000FF;" parent="1" vertex="1">
                    <mxGeometry x="1340" y="448" width="120" height="10" as="geometry"/>
                </mxCell>
                <mxCell id="214" value="&lt;b&gt;&lt;font style=&quot;font-size: 13px&quot;&gt;| Vidblain 10, 15 |&lt;/font&gt;&lt;/b&gt;" style="text;html=1;strokeColor=none;fillColor=none;align=center;verticalAlign=middle;whiteSpace=wrap;rounded=0;" parent="1" vertex="1">
                    <mxGeometry x="1055" y="1000" width="110" height="20" as="geometry"/>
                </mxCell>
                <mxCell id="215" value="" style="endArrow=classic;html=1;exitX=1;exitY=0.5;exitDx=0;exitDy=0;entryX=0.5;entryY=1;entryDx=0;entryDy=0;shape=flexArrow;edgeStyle=orthogonalEdgeStyle;fillColor=#333333;gradientColor=#666666;" parent="1" source="214" target="18" edge="1">
                    <mxGeometry width="50" height="50" relative="1" as="geometry">
                        <mxPoint x="825" y="585" as="sourcePoint"/>
                        <mxPoint x="875" y="535" as="targetPoint"/>
                    </mxGeometry>
                </mxCell>
                <mxCell id="216" value="" style="shape=mxgraph.office.security.lock_protected;html=1;outlineConnect=0;strokeWidth=1;strokeColor=#000000;fillColor=#00FF00;" parent="1" vertex="1">
                    <mxGeometry x="1008" y="642.5" width="10" height="15" as="geometry"/>
                </mxCell>
                <mxCell id="217" value="&lt;font style=&quot;font-size: 22px&quot;&gt;Prison Section&lt;/font&gt;" style="text;html=1;strokeColor=none;fillColor=none;align=center;verticalAlign=middle;whiteSpace=wrap;rounded=0;" parent="1" vertex="1">
                    <mxGeometry x="290.5" y="142" width="220" height="20" as="geometry"/>
                </mxCell>
                <mxCell id="218" value="&lt;font style=&quot;font-size: 22px&quot;&gt;Garden Section&lt;/font&gt;" style="text;html=1;strokeColor=none;fillColor=none;align=center;verticalAlign=middle;whiteSpace=wrap;rounded=0;" parent="1" vertex="1">
                    <mxGeometry x="1230" y="42" width="220" height="20" as="geometry"/>
                </mxCell>
                <mxCell id="219" value="&lt;font style=&quot;font-size: 22px&quot;&gt;Third Floor&lt;/font&gt;" style="text;html=1;strokeColor=none;fillColor=none;align=center;verticalAlign=middle;whiteSpace=wrap;rounded=0;" parent="1" vertex="1">
                    <mxGeometry x="290.5" y="662" width="220" height="20" as="geometry"/>
                </mxCell>
                <mxCell id="220" value="&lt;font style=&quot;font-size: 22px&quot;&gt;Second Floor &amp;amp; Entry&lt;/font&gt;" style="text;html=1;strokeColor=none;fillColor=none;align=center;verticalAlign=middle;whiteSpace=wrap;rounded=0;" parent="1" vertex="1">
                    <mxGeometry x="1224" y="530" width="220" height="20" as="geometry"/>
                </mxCell>
                <object label="Central Chamber" placeholders="1" room="37461" healrate="100" manarate="100" sector="inside" id="221">
                    <mxCell style="rounded=0;whiteSpace=wrap;html=1;labelBackgroundColor=none;fontSize=12;fontColor=#000000;strokeWidth=1;fillColor=#FFFFFF;gradientColor=none;" parent="1" vertex="1">
                        <mxGeometry x="340" y="1140" width="120" height="60" as="geometry"/>
                    </mxCell>
                </object>
                <object label="A Fetid Cell&lt;br&gt;&lt;font color=&quot;#ff0000&quot;&gt;[**&amp;gt; PK &amp;lt;**]&lt;/font&gt;" placeholders="1" room="37462" healrate="100" manarate="100" sector="waterswim" tags="pk" id="222">
                    <mxCell style="rounded=0;whiteSpace=wrap;html=1;labelBackgroundColor=none;fontSize=12;fontColor=#000000;strokeWidth=1;fillColor=#FFFFFF;gradientColor=none;" parent="1" vertex="1">
                        <mxGeometry x="340.5" y="1040" width="120" height="60" as="geometry"/>
                    </mxCell>
                </object>
                <object label="An Incandescent Cell&lt;br&gt;&lt;font color=&quot;#ff0000&quot;&gt;[**&amp;gt; PK &amp;lt;**]&lt;/font&gt;" placeholders="1" room="37463" healrate="100" manarate="100" sector="hellinside" tags="pk" id="223">
                    <mxCell style="rounded=0;whiteSpace=wrap;html=1;labelBackgroundColor=none;fontSize=12;fontColor=#000000;strokeWidth=1;fillColor=#FFFFFF;gradientColor=none;" parent="1" vertex="1">
                        <mxGeometry x="500" y="1140" width="120" height="60" as="geometry"/>
                    </mxCell>
                </object>
                <object label="An Exanimated Cell&lt;br&gt;&lt;font color=&quot;#ff0000&quot;&gt;[**&amp;gt; PK &amp;lt;**]&lt;/font&gt;" placeholders="1" room="37465" healrate="100" manarate="100" sector="inside" tags="pk" id="224">
                    <mxCell style="rounded=0;whiteSpace=wrap;html=1;labelBackgroundColor=none;fontSize=12;fontColor=#000000;strokeWidth=1;fillColor=#FFFFFF;gradientColor=none;" parent="1" vertex="1">
                        <mxGeometry x="180" y="1140" width="120" height="60" as="geometry"/>
                    </mxCell>
                </object>
                <object label="A Glacial Cell&lt;br&gt;&lt;font color=&quot;#ff0000&quot;&gt;[**&amp;gt; PK &amp;lt;**]&lt;/font&gt;" placeholders="1" room="37464" healrate="100" manarate="100" sector="inside" tags="pk" id="225">
                    <mxCell style="rounded=0;whiteSpace=wrap;html=1;labelBackgroundColor=none;fontSize=12;fontColor=#000000;strokeWidth=1;fillColor=#FFFFFF;gradientColor=none;" parent="1" vertex="1">
                        <mxGeometry x="340.5" y="1240" width="120" height="60" as="geometry"/>
                    </mxCell>
                </object>
                <object label="" passable="false" pickable="false" id="229">
                    <mxCell style="endArrow=none;html=1;rounded=0;shadow=0;sketch=0;jumpStyle=none;exitX=1;exitY=0.5;exitDx=0;exitDy=0;entryX=0;entryY=0.5;entryDx=0;entryDy=0;endFill=0;fillColor=#333333;gradientColor=#666666;" parent="1" source="224" target="221" edge="1">
                        <mxGeometry relative="1" as="geometry">
                            <mxPoint x="760" y="1100" as="sourcePoint"/>
                            <mxPoint x="940" y="1100" as="targetPoint"/>
                        </mxGeometry>
                    </mxCell>
                </object>
                <mxCell id="230" value="" style="shape=mxgraph.office.security.lock_protected;html=1;outlineConnect=0;strokeWidth=1;fillColor=#FF9933;" parent="229" vertex="1">
                    <mxGeometry width="15" height="20" relative="1" as="geometry">
                        <mxPoint x="-7" y="-10" as="offset"/>
                    </mxGeometry>
                </mxCell>
                <object label="" passable="false" pickable="false" id="231">
                    <mxCell style="endArrow=none;html=1;rounded=0;shadow=0;sketch=0;jumpStyle=none;exitX=1;exitY=0.5;exitDx=0;exitDy=0;endFill=0;fillColor=#333333;gradientColor=#666666;entryX=0;entryY=0.5;entryDx=0;entryDy=0;" parent="1" source="221" target="223" edge="1">
                        <mxGeometry relative="1" as="geometry">
                            <mxPoint x="765" y="1205" as="sourcePoint"/>
                            <mxPoint x="505" y="1100" as="targetPoint"/>
                        </mxGeometry>
                    </mxCell>
                </object>
                <mxCell id="232" value="" style="shape=mxgraph.office.security.lock_protected;html=1;outlineConnect=0;strokeWidth=1;fillColor=#FF9933;" parent="231" vertex="1">
                    <mxGeometry width="15" height="20" relative="1" as="geometry">
                        <mxPoint x="-7" y="-10" as="offset"/>
                    </mxGeometry>
                </mxCell>
                <object label="" passable="false" pickable="false" id="233">
                    <mxCell style="endArrow=none;html=1;rounded=0;shadow=0;sketch=0;jumpStyle=none;exitX=0.5;exitY=1;exitDx=0;exitDy=0;entryX=0.5;entryY=0;entryDx=0;entryDy=0;endFill=0;fillColor=#333333;gradientColor=#666666;" parent="1" source="222" target="221" edge="1">
                        <mxGeometry relative="1" as="geometry">
                            <mxPoint x="770" y="1110" as="sourcePoint"/>
                            <mxPoint x="950" y="1110" as="targetPoint"/>
                        </mxGeometry>
                    </mxCell>
                </object>
                <mxCell id="234" value="" style="shape=mxgraph.office.security.lock_protected;html=1;outlineConnect=0;strokeWidth=1;fillColor=#FF9933;" parent="233" vertex="1">
                    <mxGeometry width="15" height="20" relative="1" as="geometry">
                        <mxPoint x="-7" y="-10" as="offset"/>
                    </mxGeometry>
                </mxCell>
                <object label="" passable="false" pickable="false" id="235">
                    <mxCell style="endArrow=none;html=1;rounded=0;shadow=0;sketch=0;jumpStyle=none;exitX=0.5;exitY=1;exitDx=0;exitDy=0;entryX=0.5;entryY=0;entryDx=0;entryDy=0;endFill=0;fillColor=#333333;gradientColor=#666666;" parent="1" source="221" target="225" edge="1">
                        <mxGeometry relative="1" as="geometry">
                            <mxPoint x="775" y="1115" as="sourcePoint"/>
                            <mxPoint x="955" y="1115" as="targetPoint"/>
                        </mxGeometry>
                    </mxCell>
                </object>
                <mxCell id="236" value="" style="shape=mxgraph.office.security.lock_protected;html=1;outlineConnect=0;strokeWidth=1;fillColor=#FF9933;" parent="235" vertex="1">
                    <mxGeometry width="15" height="20" relative="1" as="geometry">
                        <mxPoint x="-7" y="-10" as="offset"/>
                    </mxGeometry>
                </mxCell>
                <mxCell id="237" value="&lt;font style=&quot;font-size: 22px&quot;&gt;Dungeons&lt;/font&gt;" style="text;html=1;strokeColor=none;fillColor=none;align=center;verticalAlign=middle;whiteSpace=wrap;rounded=0;" parent="1" vertex="1">
                    <mxGeometry x="187.5" y="1060" width="105" height="20" as="geometry"/>
                </mxCell>
                <mxCell id="240" value="" style="group" parent="1" vertex="1" connectable="0">
                    <mxGeometry x="499.9950000000001" y="1080" width="110.50499999999988" height="20" as="geometry"/>
                </mxCell>
                <mxCell id="238" value="" style="sketch=0;pointerEvents=1;shadow=0;dashed=0;html=1;labelPosition=center;verticalLabelPosition=bottom;verticalAlign=top;outlineConnect=0;align=center;shape=mxgraph.office.security.key_permissions;strokeWidth=1;direction=south;strokeColor=#000000;fillColor=#FF9933;" parent="240" vertex="1">
                    <mxGeometry y="4.105000000000018" width="25" height="11.79" as="geometry"/>
                </mxCell>
                <mxCell id="239" value="Key from Asherodan" style="text;html=1;strokeColor=none;fillColor=none;align=center;verticalAlign=middle;whiteSpace=wrap;rounded=0;" parent="240" vertex="1">
                    <mxGeometry x="10.504999999999882" width="100" height="20" as="geometry"/>
                </mxCell>
                <object label="" passable="true" id="241">
                    <mxCell style="endArrow=none;html=1;rounded=0;shadow=0;sketch=0;fontSize=13;jumpStyle=none;jumpSize=6;verticalAlign=middle;horizontal=1;endFill=0;exitX=1;exitY=0.5;exitDx=0;exitDy=0;entryX=0;entryY=0.5;entryDx=0;entryDy=0;" parent="1" source="71" target="74" edge="1">
                        <mxGeometry relative="1" as="geometry">
                            <mxPoint x="1045" y="899" as="sourcePoint"/>
                            <mxPoint x="1085" y="899" as="targetPoint"/>
                        </mxGeometry>
                    </mxCell>
                </object>
                <mxCell id="242" value="&lt;div style=&quot;font-size: 20px;&quot;&gt;|&lt;/div&gt;" style="edgeLabel;resizable=0;html=1;align=center;verticalAlign=middle;fontSize=20;strokeColor=#630000;strokeWidth=1;fillColor=#FF0000;gradientColor=none;horizontal=1;labelBackgroundColor=none;direction=south;rotation=0;" parent="241" connectable="0" vertex="1">
                    <mxGeometry relative="1" as="geometry">
                        <mxPoint x="-2" y="-3" as="offset"/>
                    </mxGeometry>
                </mxCell>
                <object label="" passable="true" id="243">
                    <mxCell style="endArrow=none;html=1;rounded=0;shadow=0;sketch=0;fontSize=13;jumpStyle=none;jumpSize=6;verticalAlign=middle;horizontal=1;endFill=0;exitX=1;exitY=0;exitDx=0;exitDy=0;entryX=0;entryY=1;entryDx=0;entryDy=0;" parent="1" source="169" target="176" edge="1">
                        <mxGeometry relative="1" as="geometry">
                            <mxPoint x="721" y="980" as="sourcePoint"/>
                            <mxPoint x="761" y="940" as="targetPoint"/>
                        </mxGeometry>
                    </mxCell>
                </object>
                <mxCell id="244" value="&lt;div style=&quot;font-size: 20px;&quot;&gt;|&lt;/div&gt;" style="edgeLabel;resizable=0;html=1;align=center;verticalAlign=middle;fontSize=20;strokeColor=#630000;strokeWidth=1;fillColor=#FF0000;gradientColor=none;horizontal=1;labelBackgroundColor=none;direction=south;rotation=-45;" parent="243" connectable="0" vertex="1">
                    <mxGeometry relative="1" as="geometry">
                        <mxPoint x="-3" as="offset"/>
                    </mxGeometry>
                </mxCell>
                <object label="" passable="true" id="245">
                    <mxCell style="endArrow=none;html=1;rounded=0;shadow=0;sketch=0;fontSize=13;jumpStyle=none;jumpSize=6;verticalAlign=middle;horizontal=1;endFill=0;exitX=1;exitY=0;exitDx=0;exitDy=0;entryX=0;entryY=1;entryDx=0;entryDy=0;" parent="1" source="167" target="175" edge="1">
                        <mxGeometry relative="1" as="geometry">
                            <mxPoint x="706" y="664" as="sourcePoint"/>
                            <mxPoint x="570" y="700" as="targetPoint"/>
                        </mxGeometry>
                    </mxCell>
                </object>
                <mxCell id="246" value="&lt;div style=&quot;font-size: 20px;&quot;&gt;|&lt;/div&gt;" style="edgeLabel;resizable=0;html=1;align=center;verticalAlign=middle;fontSize=20;strokeColor=#630000;strokeWidth=1;fillColor=#FF0000;gradientColor=none;horizontal=1;labelBackgroundColor=none;direction=south;rotation=-45;" parent="245" connectable="0" vertex="1">
                    <mxGeometry relative="1" as="geometry">
                        <mxPoint x="-3" as="offset"/>
                    </mxGeometry>
                </mxCell>
                <object label="An Olivine Room" placeholders="1" room="37431" healrate="100" manarate="100" sector="inside" tags="prison" id="175">
                    <mxCell style="rounded=0;whiteSpace=wrap;html=1;labelBackgroundColor=none;fontSize=12;fontColor=#000000;strokeWidth=1;fillColor=#FFFFFF;gradientColor=none;" parent="1" vertex="1">
                        <mxGeometry x="500" y="620" width="120" height="60" as="geometry"/>
                    </mxCell>
                </object>
                <object label="" passable="true" id="247">
                    <mxCell style="endArrow=none;html=1;rounded=0;shadow=0;sketch=0;fontSize=13;jumpStyle=none;jumpSize=6;verticalAlign=middle;horizontal=1;endFill=0;entryX=1;entryY=1;entryDx=0;entryDy=0;exitX=0;exitY=0;exitDx=0;exitDy=0;" parent="1" source="173" target="177" edge="1">
                        <mxGeometry relative="1" as="geometry">
                            <mxPoint x="67" y="882" as="sourcePoint"/>
                            <mxPoint x="107" y="842" as="targetPoint"/>
                        </mxGeometry>
                    </mxCell>
                </object>
                <mxCell id="248" value="&lt;div style=&quot;font-size: 20px;&quot;&gt;|&lt;/div&gt;" style="edgeLabel;resizable=0;html=1;align=center;verticalAlign=middle;fontSize=20;strokeColor=#630000;strokeWidth=1;fillColor=#FF0000;gradientColor=none;horizontal=1;labelBackgroundColor=none;direction=south;rotation=45;" parent="247" connectable="0" vertex="1">
                    <mxGeometry relative="1" as="geometry">
                        <mxPoint x="1" y="-4" as="offset"/>
                    </mxGeometry>
                </mxCell>
                <object label="" passable="true" id="249">
                    <mxCell style="endArrow=none;html=1;rounded=0;shadow=0;sketch=0;fontSize=13;jumpStyle=none;jumpSize=6;verticalAlign=middle;horizontal=1;endFill=0;exitX=1;exitY=0;exitDx=0;exitDy=0;" parent="1" source="171" edge="1">
                        <mxGeometry relative="1" as="geometry">
                            <mxPoint x="709" y="997" as="sourcePoint"/>
                            <mxPoint x="480" y="900" as="targetPoint"/>
                        </mxGeometry>
                    </mxCell>
                </object>
                <mxCell id="250" value="&lt;div style=&quot;font-size: 20px;&quot;&gt;|&lt;/div&gt;" style="edgeLabel;resizable=0;html=1;align=center;verticalAlign=middle;fontSize=20;strokeColor=#630000;strokeWidth=1;fillColor=#FF0000;gradientColor=none;horizontal=1;labelBackgroundColor=none;direction=south;rotation=-45;" parent="249" connectable="0" vertex="1">
                    <mxGeometry relative="1" as="geometry">
                        <mxPoint x="-3" as="offset"/>
                    </mxGeometry>
                </mxCell>
                <object label="" passable="true" id="251">
                    <mxCell style="endArrow=none;html=1;rounded=0;shadow=0;sketch=0;fontSize=13;jumpStyle=none;jumpSize=6;verticalAlign=middle;horizontal=1;endFill=0;exitX=1;exitY=0.5;exitDx=0;exitDy=0;entryX=0;entryY=0.5;entryDx=0;entryDy=0;" parent="1" source="19" target="21" edge="1">
                        <mxGeometry relative="1" as="geometry">
                            <mxPoint x="1110" y="898" as="sourcePoint"/>
                            <mxPoint x="1150" y="898" as="targetPoint"/>
                        </mxGeometry>
                    </mxCell>
                </object>
                <mxCell id="252" value="&lt;div style=&quot;font-size: 20px;&quot;&gt;|&lt;/div&gt;" style="edgeLabel;resizable=0;html=1;align=center;verticalAlign=middle;fontSize=20;strokeColor=#630000;strokeWidth=1;fillColor=#FF0000;gradientColor=none;horizontal=1;labelBackgroundColor=none;direction=south;rotation=0;" parent="251" connectable="0" vertex="1">
                    <mxGeometry relative="1" as="geometry">
                        <mxPoint x="-2" y="-3" as="offset"/>
                    </mxGeometry>
                </mxCell>
                <mxCell id="253" value="&lt;font color=&quot;#006633&quot;&gt;enter dome&lt;/font&gt;" style="text;html=1;strokeColor=none;fillColor=none;align=center;verticalAlign=middle;whiteSpace=wrap;rounded=0;labelBackgroundColor=none;fontSize=11;fontStyle=1;fontColor=#0000FF;" parent="1" vertex="1">
                    <mxGeometry x="660" y="143" width="120" height="20" as="geometry"/>
                </mxCell>
                <mxCell id="255" value="(only available during goal)" style="text;html=1;strokeColor=none;fillColor=none;align=center;verticalAlign=middle;whiteSpace=wrap;rounded=0;fontStyle=0;fontSize=12;" parent="1" vertex="1">
                    <mxGeometry x="152.5" y="1085" width="175" height="20" as="geometry"/>
                </mxCell>
            </root>
        </mxGraphModel>
    </diagram>
</mxfile>